<svg t="1603768147015" class="icon" viewBox="0 0 1024 1024" version="1.1" xmlns="http://www.w3.org/2000/svg" p-id="10011" width="64" height="64"><path d="M599.552 673.28V441.856c0-12.288-8.192-20.48-20.48-20.48s-20.48 8.192-20.48 20.48V673.28c0 12.288 8.192 20.48 20.48 20.48s20.48-7.68 20.48-20.48zM460.8 441.856c0-12.288-8.192-20.48-20.48-20.48s-20.48 8.192-20.48 20.48V673.28c0 12.288 8.192 20.48 20.48 20.48s20.48-8.192 20.48-20.48V441.856z" p-id="10012" fill="#d81e06"></path><path d="M717.824 375.296c-12.288 0-20.48 8.192-20.48 20.48V696.32c0 40.96 0 51.2-4.608 65.024 0 10.752-6.144 15.872-14.848 19.968-9.728 9.728-19.968 9.728-52.224 9.728H398.848c-32.768 0-42.496 0-57.344-14.848-4.608-4.608-9.728-9.728-14.336-18.944-5.12-9.728-5.12-23.552-5.12-61.44V395.264c0-12.288-8.192-20.48-20.48-20.48s-20.48 8.192-20.48 20.48v309.76c0 42.496 4.608 59.904 13.824 77.312 9.216 13.312 22.528 27.136 36.352 36.352C345.088 827.904 358.4 832 399.36 832h222.208c40.448 0 54.272-4.096 68.096-13.312 17.92-9.216 27.136-17.92 36.352-35.84 9.216-18.432 13.824-32.256 13.824-77.312v-309.76c-1.536-12.288-9.728-20.48-22.016-20.48z m92.16-92.672H645.632v-11.776c0-18.432-3.072-32.768-8.704-45.056-8.704-13.312-17.92-22.528-26.624-26.624-12.288-6.144-26.624-9.216-45.056-9.216H454.144c-18.432 0-32.768 3.072-45.056 8.704-13.312 8.704-22.528 17.92-26.624 26.624-6.144 12.288-9.216 26.624-9.216 45.056v11.776H208.896c-12.288 0-20.48 8.192-20.48 20.48s8.192 20.48 20.48 20.48h601.6c12.288 0 20.48-8.192 20.48-20.48 0-11.776-8.704-19.968-20.992-19.968z m-205.312 0H414.72v-11.776c0-15.36 0-24.576 6.144-25.6 1.024-1.536 2.048-2.56 3.072-4.096 1.536-2.048 3.072-5.12 6.656-5.12 5.12-4.608 10.24-4.608 24.064-4.608H565.76c15.36 0 24.576 0 25.6 6.144 1.536 1.024 2.56 2.048 4.096 3.072 2.048 1.536 5.12 3.072 5.12 6.656 4.608 5.12 4.608 10.24 4.608 24.064v11.264z" p-id="10013" fill="#d81e06"></path></svg>