<svg t="1603803159979" class="icon" viewBox="0 0 1024 1024" version="1.1" xmlns="http://www.w3.org/2000/svg" p-id="6684" width="64" height="64"><path d="M482.07644445 1007.38844445c7.39555555 7.39555555 17.29422222 11.49155555 27.76177777 11.49155555 10.35377778 0 20.36622222-4.096 27.76177778-11.49155555l471.95022222-471.95022223c7.62311111-7.62311111 11.71911111-17.97688889 11.49155556-28.78577777L1009.89155555 62.57777778c-0.56888889-20.59377778-16.83911111-37.20533333-37.3191111-38.22933333L517.23377778 2.16177778c-11.03644445-0.56888889-21.84533333 3.64088889-29.696 11.49155555L15.70133333 485.48977778c-15.36 15.36-15.36 40.16355555 0 55.52355555l466.37511112 466.37511112z m48.69688888-925.92355556l401.408 19.56977778 9.78488889 390.82666666-432.128 432.24177778L98.98666667 513.25155555l431.78666666-431.78666666z m95.57333334 237.45422222L365.45422222 579.92533333c-7.62311111 7.62311111-17.74933333 11.49155555-27.76177777 11.49155556-10.01244445 0-20.13866667-3.86844445-27.76177778-11.49155556-15.36-15.36-15.36-40.16355555 0-55.52355555l260.89244444-260.89244445c15.36-15.36 40.16355555-15.36 55.52355556 0 15.36 15.24622222 15.36 40.16355555 0 55.40977778zM509.83822222 724.19555555c-7.62311111 7.62311111-17.74933333 11.49155555-27.76177777 11.49155556-10.01244445 0-20.13866667-3.86844445-27.76177778-11.49155556-15.36-15.36-15.36-40.16355555 0-55.52355555l172.14577778-172.14577778c15.36-15.36 40.16355555-15.36 55.52355555 0s15.36 40.16355555 0 55.52355556L509.83822222 724.19555555z m294.22933333-494.0231111c-18.432-18.432-18.432-48.24177778 0-66.67377778 18.432-18.432 48.24177778-18.432 66.67377778 0 18.432 18.432 18.432 48.24177778 0 66.67377778-18.432 18.31822222-48.24177778 18.31822222-66.67377778 0z" fill="#07c160" p-id="6685"></path></svg>