<svg t="1603786581613" class="icon" viewBox="0 0 1024 1024" version="1.1" xmlns="http://www.w3.org/2000/svg" p-id="8648" width="64" height="64"><path d="M512 1024a512 512 0 1 1 512-512 512 512 0 0 1-512 512z m199.111111-563.768889H568.888889V307.541333a51.541333 51.541333 0 0 0-51.541333-51.541333h-10.695112A51.541333 51.541333 0 0 0 455.111111 307.541333V460.231111H312.888889a56.888889 56.888889 0 0 0 0 113.777778H455.111111v142.222222a51.541333 51.541333 0 0 0 51.541333 51.541333h10.695112a51.541333 51.541333 0 0 0 51.541333-51.313777v-142.222223h142.222222a56.888889 56.888889 0 0 0 0-114.005333z" fill="#87c38f" p-id="8649"></path></svg>