<svg t="1603782677073" class="icon" viewBox="0 0 1024 1024" version="1.1" xmlns="http://www.w3.org/2000/svg" p-id="3718" width="64" height="64"><path d="M505.110869 921.6a443.733333 443.733333 0 1 1 0-887.466667 443.733333 443.733333 0 0 1 0 887.466667z m0-68.266667a375.466667 375.466667 0 1 0 0-750.933333 375.466667 375.466667 0 0 0 0 750.933333z" p-id="3719"></path><path d="M758.160823 750.911465m24.135912 24.135911l193.087292 193.087292q24.135911 24.135911 0 48.271823l0 0q-24.135911 24.135911-48.271823 0l-193.087292-193.087292q-24.135911-24.135911 0-48.271823l0 0q24.135911-24.135911 48.271823 0Z" p-id="3720"></path></svg>