<svg t="1603790672889" class="icon" viewBox="0 0 1024 1024" version="1.1" xmlns="http://www.w3.org/2000/svg" p-id="13646" width="64" height="64"><path d="M509.93682963 747.9296c-128.7661037 0-233.6237037-104.8576-233.62370371-233.6237037s104.8576-233.6237037 233.62370371-233.62370371 233.6237037 104.8576 233.6237037 233.62370371-104.73623703 233.6237037-233.6237037 233.6237037z m0-466.03377778c-128.15928889 0-232.41007408 104.25078518-232.41007408 232.41007408s104.25078518 232.41007408 232.41007408 232.41007407 232.41007408-104.25078518 232.41007407-232.41007407-104.25078518-232.41007408-232.41007407-232.41007408z" fill="#1296db" p-id="13647"></path><path d="M917.95911111 535.78714075l-20.6317037-327.31591112c-1.94180741-30.09801482-25.12213333-54.37060741-55.09878519-57.64740741l-329.9858963-35.55934814c-18.20444445-1.94180741-36.40888889 4.2477037-49.63745184 16.99081481l-425.0130963 410.20681481c-24.63668148 23.78714075-25.2434963 62.86601482-1.57771853 87.5026963l350.37487408 363.11798518c23.78714075 24.63668148 62.86601482 25.2434963 87.5026963 1.57771852L899.14785185 584.21096297c13.1072-12.62174815 20.02488889-30.34074075 18.81125926-48.42382222z m-239.81321481-21.11715557c-43.20521482 41.6274963-111.89665185 40.41386667-153.52414815-2.66998518-41.6274963-43.20521482-40.41386667-111.89665185 2.66998518-153.52414815s111.89665185-40.41386667 153.52414815 2.66998518c41.74885925 43.20521482 40.41386667 111.89665185-2.66998518 153.52414815z" fill="#1296db" p-id="13648"></path></svg>